# xmcd CD database file
#
# Track frame offsets:
#	150
#	30857
#	61718
#	98920
#	124590
#	158293
#	181392
#	212882
#
# Disc length: 3120 seconds
#
# Revision: 0
# Processed by: cddbd v1.5.2PL0 Copyright (c) Steve Scherf et al.
# Submitted via: CDex 1.51
#
DISCID=570c2e08
DTITLE=Organic Mode - Nasty Junething
DYEAR=2005
DGENRE=Jazz
TTITLE0=Nasty Junething
TTITLE1=Don't Cry
TTITLE2=Go
TTITLE3=Del's Patio
TTITLE4=Loosdorf
TTITLE5=Patty Duke
TTITLE6=So Happy
TTITLE7=What A Difference A Day Makes
EXTD=YEAR: 2005
EXTT0=
EXTT1=
EXTT2=
EXTT3=
EXTT4=
EXTT5=
EXTT6=
EXTT7=
PLAYORDER=
